<?xml version="1.0" standalone="no"?>
<!DOCTYPE svg PUBLIC "-//W3C//DTD SVG 20010904//EN"
 "http://www.w3.org/TR/2001/REC-SVG-20010904/DTD/svg10.dtd">
<svg version="1.0" xmlns="http://www.w3.org/2000/svg"
 width="279.000000pt" height="131.000000pt" viewBox="0 0 279.000000 131.000000"
 preserveAspectRatio="xMidYMid meet">

<g transform="translate(0.000000,131.000000) scale(0.100000,-0.100000)"
fill="#000000" stroke="none">
<path d="M1390 1155 l0 -55 -120 0 -120 0 0 -55 0 -55 -60 0 -60 0 0 -55 c0
-52 -1 -55 -25 -55 -23 0 -25 -3 -25 -48 0 -113 62 -217 157 -262 110 -52 328
-31 451 43 65 39 144 123 177 187 22 43 28 48 67 53 45 6 98 51 98 82 0 19
-40 35 -85 35 -29 0 -37 5 -51 35 -15 33 -48 65 -66 65 -21 0 -40 -66 -35
-121 4 -52 3 -58 -17 -63 -35 -9 -36 -8 -36 49 l0 55 -60 0 -60 0 0 110 0 110
-65 0 -65 0 0 -55z m110 -10 l0 -45 -50 0 -50 0 0 45 0 45 50 0 50 0 0 -45z
m-230 -105 c0 -51 -19 -53 -22 -2 l-1 37 -4 -37 c-2 -21 -8 -38 -13 -38 -4 0
-6 9 -3 20 3 11 2 28 -3 37 -6 14 -9 9 -14 -22 l-7 -40 -2 38 c0 20 -6 37 -12
37 -7 0 -10 -14 -7 -35 2 -19 0 -35 -4 -35 -4 0 -8 18 -8 40 l0 40 50 0 50 0
0 -40z m109 -2 l-2 -43 -7 40 c-5 31 -8 36 -14 22 -5 -9 -6 -26 -3 -37 3 -11
1 -20 -4 -20 -5 0 -10 17 -11 38 l-1 37 -4 -37 c-2 -21 -8 -38 -12 -38 -4 0
-5 16 -3 35 2 20 0 35 -6 35 -6 0 -13 -17 -15 -37 l-4 -38 -1 43 -2 42 45 0
45 0 -1 -42z m121 2 c0 -33 -3 -40 -20 -40 -16 0 -20 7 -20 33 0 26 -4 33 -20
33 -16 0 -20 -7 -20 -33 0 -18 -4 -33 -10 -33 -5 0 -10 18 -10 40 l0 40 50 0
50 0 0 -40z m258 -22 c37 -41 38 -72 2 -135 -96 -171 -208 -260 -366 -293 -45
-10 -54 -14 -39 -20 16 -6 13 -9 -19 -15 -60 -12 -166 11 -223 48 l-48 31 60
6 c63 7 109 25 100 40 -3 5 -21 2 -40 -6 -19 -8 -50 -14 -69 -14 -49 0 -69 35
-100 173 l-6 27 328 0 c355 0 399 5 387 44 -15 47 -17 67 -11 101 8 41 15 43
44 13z m-625 -55 c-15 -6 -18 -63 -3 -63 6 0 10 -4 10 -10 0 -5 -18 -10 -40
-10 -22 0 -40 5 -40 10 0 6 5 10 10 10 15 0 12 57 -2 63 -7 3 7 5 32 5 25 0
39 -2 33 -5z m135 -35 l-3 -43 -47 -3 -48 -3 0 45 0 46 51 0 50 0 -3 -42z
m112 -3 l0 -45 -45 0 -45 0 0 45 0 45 45 0 45 0 0 -45z m120 -1 l0 -45 -47 3
-48 3 -3 43 -3 42 50 0 51 0 0 -46z m120 1 l0 -45 -45 0 c-25 0 -45 5 -45 10
0 6 5 10 10 10 15 0 12 57 -2 63 -7 3 8 6 35 6 l47 1 0 -45z"/>
<path d="M1420 1145 c0 -24 4 -31 20 -31 16 0 20 7 20 31 0 24 -4 31 -20 31
-16 0 -20 -7 -20 -31z"/>
<path d="M1470 1145 c0 -14 5 -25 10 -25 6 0 10 11 10 25 0 14 -4 25 -10 25
-5 0 -10 -11 -10 -25z"/>
<path d="M1470 1040 c0 -16 5 -30 10 -30 6 0 10 14 10 30 0 17 -4 30 -10 30
-5 0 -10 -13 -10 -30z"/>
<path d="M1275 731 c-6 -11 9 -23 19 -14 9 9 7 23 -3 23 -6 0 -12 -4 -16 -9z"/>
<path d="M1090 930 c0 -16 5 -30 10 -30 6 0 10 14 10 30 0 17 -4 30 -10 30 -5
0 -10 -13 -10 -30z"/>
<path d="M1180 930 c0 -16 5 -30 10 -30 6 0 10 14 10 30 0 17 -4 30 -10 30 -5
0 -10 -13 -10 -30z"/>
<path d="M1210 930 c0 -16 5 -30 10 -30 6 0 10 14 10 30 0 17 -4 30 -10 30 -5
0 -10 -13 -10 -30z"/>
<path d="M1242 930 c0 -19 2 -27 5 -17 2 9 2 25 0 35 -3 9 -5 1 -5 -18z"/>
<path d="M1300 930 c0 -16 5 -30 10 -30 6 0 10 14 10 30 0 17 -4 30 -10 30 -5
0 -10 -13 -10 -30z"/>
<path d="M1332 930 c0 -19 2 -27 5 -17 2 9 2 25 0 35 -3 9 -5 1 -5 -18z"/>
<path d="M1350 930 c0 -16 5 -30 10 -30 6 0 10 14 10 30 0 17 -4 30 -10 30 -5
0 -10 -13 -10 -30z"/>
<path d="M1420 930 c0 -23 4 -30 20 -30 16 0 20 7 20 30 0 23 -4 30 -20 30
-16 0 -20 -7 -20 -30z"/>
<path d="M1470 930 c0 -16 5 -30 10 -30 6 0 10 14 10 30 0 17 -4 30 -10 30 -5
0 -10 -13 -10 -30z"/>
<path d="M1560 930 c0 -16 5 -30 10 -30 6 0 10 14 10 30 0 17 -4 30 -10 30 -5
0 -10 -13 -10 -30z"/>
<path d="M1590 930 c0 -16 5 -30 10 -30 6 0 10 14 10 30 0 17 -4 30 -10 30 -5
0 -10 -13 -10 -30z"/>
<path d="M937 444 c-4 -4 -7 -30 -7 -57 0 -43 -2 -48 -17 -41 -30 14 -89 9
-116 -9 -35 -23 -50 -77 -34 -125 26 -80 143 -92 188 -19 17 28 19 47 17 141
-3 101 -11 130 -31 110z m-32 -149 c14 -13 25 -33 25 -45 0 -27 -43 -70 -70
-70 -27 0 -70 43 -70 70 0 27 43 70 70 70 12 0 32 -11 45 -25z"/>
<path d="M1437 443 c-4 -3 -7 -68 -7 -143 0 -103 3 -140 13 -149 19 -15 27 -4
27 39 0 65 21 67 74 4 27 -30 53 -53 59 -51 24 8 16 29 -28 76 l-46 49 45 32
c25 17 46 35 46 40 0 24 -26 19 -75 -14 -30 -20 -59 -36 -65 -36 -6 0 -10 33
-10 80 0 60 -3 80 -13 80 -8 0 -17 -3 -20 -7z"/>
<path d="M1039 337 c-70 -47 -60 -151 17 -183 73 -31 144 15 144 93 0 57 -14
81 -55 99 -47 19 -67 18 -106 -9z m102 -35 c45 -37 16 -122 -41 -122 -9 0 -29
9 -44 21 -35 28 -35 70 0 98 33 26 55 26 85 3z"/>
<path d="M1294 351 c-66 -28 -84 -118 -36 -173 25 -27 36 -31 75 -31 47 0 77
15 77 39 0 16 -36 19 -45 4 -10 -17 -50 -11 -73 10 -28 27 -29 73 -1 101 21
21 40 22 97 4 16 -5 22 -3 22 8 0 33 -72 56 -116 38z"/>
<path d="M1704 350 c-60 -24 -83 -113 -43 -163 28 -37 87 -54 125 -36 16 8 30
23 32 33 3 16 0 18 -19 12 -56 -17 -65 -17 -94 6 l-30 23 85 5 c80 5 85 6 88
29 5 34 -16 68 -53 86 -36 17 -59 18 -91 5z m84 -46 c37 -25 25 -34 -45 -34
l-66 0 23 25 c27 29 56 32 88 9z"/>
<path d="M1885 348 c-10 -25 -1 -203 10 -203 6 0 13 31 16 69 7 83 31 112 85
103 42 -7 55 18 19 35 -19 8 -35 8 -62 0 -26 -8 -40 -8 -50 -1 -9 8 -14 7 -18
-3z"/>
</g>
</svg>
